<?xml version="1.0" encoding="utf-8"?>
<!-- Generator: Adobe Illustrator 22.0.1, SVG Export Plug-In . SVG Version: 6.00 Build 0)  -->
<svg version="1.1" id="레이어_1" xmlns="http://www.w3.org/2000/svg" xmlns:xlink="http://www.w3.org/1999/xlink" x="0px"
	 y="0px" viewBox="0 0 343.5 330.2" style="enable-background:new 0 0 343.5 330.2;" xml:space="preserve">
<style type="text/css">
	.st0{fill:#DA2128;}
	.st1{fill:#FFFFFF;}
</style>
<g>
	<path class="st0" d="M179.1,5.1c4,5.4,12.5,16.6,12.6,16.7c0.7,1,1.2,2.2,2.1,3.1c4.8,10,12.5,18.9,15.7,30.2l2.1,6.3
		c0,0,0.4,2.2,0.9,4.7c1.8,7.2,0,14.1-0.7,21.1c-2.3,12.5-9.7,24-16.1,34.9c-6,8.1-19.2,23.9-19.2,23.9
		c-7.8-9.2-16.1-18.2-24.2-27.3c-4.5-8.4-9.2-16.7-13.2-25.4c-2.9-10-5.6-19.9-5.1-29.9c-0.1-0.1,0.3-4.3,0.4-6
		c1-3.5,1.6-7.3,3.5-10.3c0.4-1.6,2.6-5,3.8-6.5c0,0,3.8-5.3,4.8-6.6c9.1-11.4,21.3-19.5,31.7-29.5C178.5,4.2,178.8,5,179.1,5.1"/>
	<path class="st0" d="M57.7,63.2c2.8,1.2,5.9,1.6,8.8,2.6c7.9,0.9,15.7,2.9,23.5,5.1c4.7,1.6,14.1,6.5,14.1,6.5
		c12.2,6.6,20.4,16.9,28.9,26.5c7.3,10.3,13.2,21.4,16.1,34.6c0.7,4,2.1,8.1,2.3,12.2c-13,3.8-26.5,6-39.6,6.3
		c-10.4-1.6-20.4-5.4-30.2-10.6c-9.7-6.7-16.9-15-23.5-23.8c-8.7-13.5-12.9-30.4-15-46.6c-0.3-2.3-0.4-4.3-0.4-4.3
		s-0.9-6.7-1.2-10.1c0-1.6,0.1-2.6,0.1-2.6s2.6,0.7,4.7,0.9C49.2,61,56.4,63,57.7,63.2"/>
	<path class="st0" d="M276.1,74.3c0.4,0,13.5,2.2,21.1,4.3c1.3,0.1,2.1,0.7,3.1,0.9c6.6,2.3,13.5,4.5,20.1,7
		c-1,9.1-2.6,17.9-8.1,25.8c-0.1,0.3-0.3,0.7-0.7,1c-4.7,7.5-11.7,14.1-19.1,19.1c-7,4.5-13.8,9.2-21.6,12.5
		c-16,7.6-34.9,13.2-52.8,10.4c-6.7-1.2-13.8-1.3-20.5-2.8c0,0,2.9-11.9,4.3-18c0.9-3.8,4-11.1,4-11.1c5.1-7.9,6.7-16.9,13.5-24.3
		c9.1-9.2,18.5-18.5,30.5-23C258.5,73,267.7,72.9,276.1,74.3"/>
	<path class="st0" d="M96.9,225.4c8.4-2.9,14.1-9.8,20.1-16c6-6.3,11.3-13.2,16.4-20.5c0.1-0.1,4.8-7.3,7-10.1
		c0.1-0.3,0.3-0.3,0.4-0.7c-11.4-4.7-22.4-9.4-34-12.5c-9.8-2.5-19.2-5.6-29.2-5.9c-8.5-0.3-16.7-2.1-25.5,0.4
		c-19.8,4.8-35.3,15.4-50.1,26.7l0.1,0.4c5.4,8.1,11.1,16.3,17.4,23.6c0,0,2.5,3.1,4,4.5l7.2,7.2c2.8,1.5,8.9,4.1,8.9,4.1
		c7.3,4.1,15.2,5.3,23.2,6C71.8,232.1,87.3,230.1,96.9,225.4"/>
	<path class="st0" d="M266.2,159.5c4.7-0.1,7.8,0.4,11.6,0.9c11.1,1.3,21.7,5,32.1,9.4c1.6,1,3.4,2.1,5,3.1c0,0,3.5,2.9,5.4,4.5
		c2.9,2.8,5.6,5.9,8.1,8.9c0.9,1.5,2.9,4.8,3.1,5.3c4.1,7.9,7.9,16.1,11.3,24.3c0.3,0.4,0.3,1,0.7,1.5c-1.8,0.9-4,1.3-6,2.1
		c-0.4,0.1-6.3,1.8-8.7,2.9c-6.5,1.5-13.5,2.9-20.1,4c-0.4,0.1-9.7,1.5-13.9,1.8c-0.3,0-7.9,0.7-9.4,0.4c-2.1,0.4-4.1,0.1-6.2,0.1
		c-4.3,0-13.9-0.7-14.2-0.9c-4-0.3-9.8-1.8-11.6-2.5c-0.7-0.1-10.4-4.1-10.9-4.3c-1.8-0.9-6-3.5-6-3.5c-2.6-1.2-4.8-3.1-7.2-4.7
		c-3.7-2.9-7.2-6.3-10.1-10.1c-4.7-6-11.6-19.8-11.7-19.9c8.9-7.8,19.8-12.9,30.8-17.4c4.3-1.8,8.8-3.4,13.2-5
		C256.7,160.1,261.7,158.9,266.2,159.5"/>
	<path class="st0" d="M247.9,239c7.8,10.1,16.1,19.4,18.5,33.3c0.7,4.5,1.6,9.1,1.8,13.5c0.7,4.8,1.2,10.1,1.3,14.8
		c0,7.6-0.4,15.2-0.4,22.9c-3.7-1.2-7.3-2.6-11-4c-0.3,0.1-25.5-8.9-25.5-8.9c-9.1-4-18.5-9.4-26.8-15.2c0,0-11.9-8.8-15.5-14.2
		c-2.5-3.5-4.8-7.2-7.3-10.9c-0.3-0.4-2.3-4.5-2.5-6.3c-1.3-5.4-2.3-11.1-2.1-16.6c-0.1-2.3,0-5.1,0.1-7.6c1.2-11.3,4-22.4,7.5-33.6
		l0.7-2.8C207.9,210.7,232.6,221.5,247.9,239"/>
	<path class="st0" d="M159.8,203.8c-15.2,5.6-29.6,12.6-44.4,19.2c-2.5,1.5-5,3.4-7.5,4.8c-4.3,4.7-14.1,13.6-14.1,13.6
		c-5.9,5.6-11.6,14.2-11.6,22.9c-0.7,8.5,0.3,17.2,1.5,25.5c1.6,8.9,4.7,17.9,7.5,27c0.7,2.9,1.5,5.9,2.2,8.8
		c0.9-0.1,2.2-0.7,3.1-0.7c0,0,23.8-7.9,34.2-13.9c8.5-5,16.9-10.3,22.7-18.2c1-1,3.1-3.7,3.1-3.7c7.9-11.1,12.8-24.9,12.8-37.8
		c0,0,0-4.1,0.1-6.2c-0.4-4.8-1.6-9.8-2.2-14.7c-1-2.8-1.3-5.9-2.3-8.7C163.7,216,161.4,209.8,159.8,203.8"/>
</g>
<path class="st1" d="M-274.7,761.5v224.9h-97.1V857.8L-274.7,761.5z M-137.9,761.2h-128.5v97.1h224.9L-137.9,761.2z M-40.6,994.6
	V866.1h-97.1V1091L-40.6,994.6z M-274.4,1091.4h128.5v-97.1h-224.9L-274.4,1091.4z"/>
</svg>
